# MagicaVoxel @ Ephtracy

# group
g EnergyCellar

# material
mtllib EnergyCellar.mtl
usemtl palette

# normals
vn -1 0 0
vn 1 0 0
vn 0 0 1
vn 0 0 -1
vn 0 -1 0
vn 0 1 0

# texcoords
vt 0.841797 0.5
vt 0.853516 0.5
vt 0.982422 0.5

# verts
v -4 4 1
v -4 4 -1
v -4 6 1
v -4 6 -1
v -2 3 2
v -2 3 -2
v -2 4 1
v -2 4 -1
v -2 6 1
v -2 6 -1
v -2 7 2
v -2 7 -2
v -1 1 1
v -1 1 -1
v -1 3 1
v -1 3 -1
v -1 4 4
v -1 4 2
v -1 4 -2
v -1 4 -4
v -1 6 4
v -1 6 2
v -1 6 -2
v -1 6 -4
v -1 7 1
v -1 7 -1
v -1 9 1
v -1 9 -1
v 1 1 1
v 1 1 -1
v 1 3 1
v 1 3 -1
v 1 4 4
v 1 4 2
v 1 4 -2
v 1 4 -4
v 1 6 4
v 1 6 2
v 1 6 -2
v 1 6 -4
v 1 7 1
v 1 7 -1
v 1 9 1
v 1 9 -1
v 2 3 2
v 2 3 -2
v 2 4 1
v 2 4 -1
v 2 6 1
v 2 6 -1
v 2 7 2
v 2 7 -2
v 4 4 1
v 4 4 -1
v 4 6 1
v 4 6 -1
v -1 4 4
v -1 6 4
v 1 4 4
v 1 6 4
v -2 3 2
v -2 7 2
v -1 4 2
v -1 6 2
v 1 4 2
v 1 6 2
v 2 3 2
v 2 7 2
v -4 4 1
v -4 6 1
v -2 4 1
v -2 6 1
v -1 1 1
v -1 3 1
v -1 7 1
v -1 9 1
v 1 1 1
v 1 3 1
v 1 7 1
v 1 9 1
v 2 4 1
v 2 6 1
v 4 4 1
v 4 6 1
v -4 4 -1
v -4 6 -1
v -2 4 -1
v -2 6 -1
v -1 1 -1
v -1 3 -1
v -1 7 -1
v -1 9 -1
v 1 1 -1
v 1 3 -1
v 1 7 -1
v 1 9 -1
v 2 4 -1
v 2 6 -1
v 4 4 -1
v 4 6 -1
v -2 3 -2
v -2 7 -2
v -1 4 -2
v -1 6 -2
v 1 4 -2
v 1 6 -2
v 2 3 -2
v 2 7 -2
v -1 4 -4
v -1 6 -4
v 1 4 -4
v 1 6 -4
v -1 1 1
v 1 1 1
v -1 1 -1
v 1 1 -1
v -2 3 2
v 2 3 2
v -1 3 1
v 1 3 1
v -1 3 -1
v 1 3 -1
v -2 3 -2
v 2 3 -2
v -1 4 4
v 1 4 4
v -1 4 2
v 1 4 2
v -4 4 1
v -2 4 1
v 2 4 1
v 4 4 1
v -4 4 -1
v -2 4 -1
v 2 4 -1
v 4 4 -1
v -1 4 -2
v 1 4 -2
v -1 4 -4
v 1 4 -4
v -1 6 4
v 1 6 4
v -1 6 2
v 1 6 2
v -4 6 1
v -2 6 1
v 2 6 1
v 4 6 1
v -4 6 -1
v -2 6 -1
v 2 6 -1
v 4 6 -1
v -1 6 -2
v 1 6 -2
v -1 6 -4
v 1 6 -4
v -2 7 2
v 2 7 2
v -1 7 1
v 1 7 1
v -1 7 -1
v 1 7 -1
v -2 7 -2
v 2 7 -2
v -1 9 1
v 1 9 1
v -1 9 -1
v 1 9 -1

# faces
f 3/1/1 2/1/1 1/1/1
f 4/1/1 2/1/1 3/1/1
f 7/3/1 6/3/1 5/3/1
f 8/3/1 6/3/1 7/3/1
f 9/3/1 7/3/1 5/3/1
f 10/3/1 6/3/1 8/3/1
f 11/3/1 9/3/1 5/3/1
f 11/3/1 10/3/1 9/3/1
f 12/3/1 6/3/1 10/3/1
f 12/3/1 10/3/1 11/3/1
f 15/2/1 14/2/1 13/2/1
f 16/2/1 14/2/1 15/2/1
f 21/1/1 18/1/1 17/1/1
f 22/1/1 18/1/1 21/1/1
f 23/1/1 20/1/1 19/1/1
f 24/1/1 20/1/1 23/1/1
f 27/2/1 26/2/1 25/2/1
f 28/2/1 26/2/1 27/2/1
f 29/2/2 30/2/2 31/2/2
f 31/2/2 30/2/2 32/2/2
f 33/1/2 34/1/2 37/1/2
f 37/1/2 34/1/2 38/1/2
f 35/1/2 36/1/2 39/1/2
f 39/1/2 36/1/2 40/1/2
f 41/2/2 42/2/2 43/2/2
f 43/2/2 42/2/2 44/2/2
f 45/3/2 46/3/2 47/3/2
f 47/3/2 46/3/2 48/3/2
f 45/3/2 47/3/2 49/3/2
f 48/3/2 46/3/2 50/3/2
f 45/3/2 49/3/2 51/3/2
f 49/3/2 50/3/2 51/3/2
f 50/3/2 46/3/2 52/3/2
f 51/3/2 50/3/2 52/3/2
f 53/1/2 54/1/2 55/1/2
f 55/1/2 54/1/2 56/1/2
f 59/1/3 58/1/3 57/1/3
f 60/1/3 58/1/3 59/1/3
f 63/3/3 62/3/3 61/3/3
f 64/3/3 62/3/3 63/3/3
f 65/3/3 63/3/3 61/3/3
f 66/3/3 62/3/3 64/3/3
f 67/3/3 65/3/3 61/3/3
f 67/3/3 66/3/3 65/3/3
f 68/3/3 62/3/3 66/3/3
f 68/3/3 66/3/3 67/3/3
f 71/1/3 70/1/3 69/1/3
f 72/1/3 70/1/3 71/1/3
f 77/2/3 74/2/3 73/2/3
f 78/2/3 74/2/3 77/2/3
f 79/2/3 76/2/3 75/2/3
f 80/2/3 76/2/3 79/2/3
f 83/1/3 82/1/3 81/1/3
f 84/1/3 82/1/3 83/1/3
f 85/1/4 86/1/4 87/1/4
f 87/1/4 86/1/4 88/1/4
f 89/2/4 90/2/4 93/2/4
f 93/2/4 90/2/4 94/2/4
f 91/2/4 92/2/4 95/2/4
f 95/2/4 92/2/4 96/2/4
f 97/1/4 98/1/4 99/1/4
f 99/1/4 98/1/4 100/1/4
f 101/3/4 102/3/4 103/3/4
f 103/3/4 102/3/4 104/3/4
f 101/3/4 103/3/4 105/3/4
f 104/3/4 102/3/4 106/3/4
f 101/3/4 105/3/4 107/3/4
f 105/3/4 106/3/4 107/3/4
f 106/3/4 102/3/4 108/3/4
f 107/3/4 106/3/4 108/3/4
f 109/1/4 110/1/4 111/1/4
f 111/1/4 110/1/4 112/1/4
f 115/2/5 114/2/5 113/2/5
f 116/2/5 114/2/5 115/2/5
f 119/3/5 118/3/5 117/3/5
f 120/3/5 118/3/5 119/3/5
f 121/3/5 119/3/5 117/3/5
f 122/3/5 118/3/5 120/3/5
f 123/3/5 121/3/5 117/3/5
f 123/3/5 122/3/5 121/3/5
f 124/3/5 118/3/5 122/3/5
f 124/3/5 122/3/5 123/3/5
f 127/1/5 126/1/5 125/1/5
f 128/1/5 126/1/5 127/1/5
f 133/1/5 130/1/5 129/1/5
f 134/1/5 130/1/5 133/1/5
f 135/1/5 132/1/5 131/1/5
f 136/1/5 132/1/5 135/1/5
f 139/1/5 138/1/5 137/1/5
f 140/1/5 138/1/5 139/1/5
f 141/1/6 142/1/6 143/1/6
f 143/1/6 142/1/6 144/1/6
f 145/1/6 146/1/6 149/1/6
f 149/1/6 146/1/6 150/1/6
f 147/1/6 148/1/6 151/1/6
f 151/1/6 148/1/6 152/1/6
f 153/1/6 154/1/6 155/1/6
f 155/1/6 154/1/6 156/1/6
f 157/3/6 158/3/6 159/3/6
f 159/3/6 158/3/6 160/3/6
f 157/3/6 159/3/6 161/3/6
f 160/3/6 158/3/6 162/3/6
f 157/3/6 161/3/6 163/3/6
f 161/3/6 162/3/6 163/3/6
f 162/3/6 158/3/6 164/3/6
f 163/3/6 162/3/6 164/3/6
f 165/2/6 166/2/6 167/2/6
f 167/2/6 166/2/6 168/2/6
