# MagicaVoxel @ Ephtracy

# group
g SkyBox

# material
mtllib SkyBox.mtl
usemtl palette

# normals
vn -1 0 0
vn 1 0 0
vn 0 0 1
vn 0 0 -1
vn 0 -1 0
vn 0 1 0

# texcoords
vt 0.392578 0.5
vt 0.396484 0.5
vt 0.751953 0.5
vt 0.958984 0.5
vt 0.966797 0.5
vt 0.974609 0.5

# verts
v -5 0 5
v -5 0 4
v -5 0 -5
v -5 1 5
v -5 1 4
v -5 1 -5
v -5 2 5
v -5 2 4
v -5 3 4
v -5 3 3
v -5 3 -0
v -5 3 -2
v -5 4 1
v -5 4 -0
v -5 4 -2
v -5 4 -3
v -5 4 -4
v -5 4 -5
v -5 5 -4
v -5 5 -5
v -5 6 3
v -5 6 2
v -5 6 -3
v -5 6 -4
v -5 7 3
v -5 7 2
v -5 7 1
v -5 7 -0
v -5 8 4
v -5 8 3
v -5 8 -0
v -5 8 -1
v -5 8 -3
v -5 8 -4
v -5 9 5
v -5 9 4
v -5 9 -1
v -5 9 -3
v -5 10 5
v -5 10 -5
v 5 0 5
v 5 0 3
v 5 0 2
v 5 0 -5
v 5 1 5
v 5 1 3
v 5 1 2
v 5 1 -5
v 5 2 -4
v 5 2 -5
v 5 3 -3
v 5 3 -4
v 5 4 5
v 5 4 4
v 5 5 3
v 5 5 -2
v 5 5 -3
v 5 5 -4
v 5 6 5
v 5 6 4
v 5 6 3
v 5 6 -2
v 5 6 -3
v 5 7 -4
v 5 7 -5
v 5 8 4
v 5 8 3
v 5 8 1
v 5 8 -0
v 5 8 -2
v 5 8 -3
v 5 9 3
v 5 9 1
v 5 9 -0
v 5 9 -2
v 5 10 5
v 5 10 -5
v -5 0 5
v -5 1 5
v -5 2 5
v -5 9 5
v -5 10 5
v -4 2 5
v -4 3 5
v -3 0 5
v -3 1 5
v -3 8 5
v -3 9 5
v -2 3 5
v -2 4 5
v -2 7 5
v -2 8 5
v -1 0 5
v -1 1 5
v -1 4 5
v -1 7 5
v 0 5 5
v 0 8 5
v 1 4 5
v 1 5 5
v 1 8 5
v 1 9 5
v 2 0 5
v 2 1 5
v 2 3 5
v 2 4 5
v 3 0 5
v 3 1 5
v 3 8 5
v 3 9 5
v 4 0 5
v 4 1 5
v 4 3 5
v 4 4 5
v 4 6 5
v 4 8 5
v 5 0 5
v 5 1 5
v 5 4 5
v 5 6 5
v 5 10 5
v -5 0 -5
v -5 1 -5
v -5 4 -5
v -5 5 -5
v -5 10 -5
v -4 3 -5
v -4 4 -5
v -4 5 -5
v -4 6 -5
v -3 8 -5
v -3 9 -5
v -2 3 -5
v -2 4 -5
v -2 5 -5
v -2 6 -5
v -2 7 -5
v -2 8 -5
v -2 9 -5
v -2 10 -5
v -1 4 -5
v -1 5 -5
v 0 0 -5
v 0 1 -5
v 0 6 -5
v 0 7 -5
v 1 4 -5
v 1 5 -5
v 1 6 -5
v 1 7 -5
v 2 0 -5
v 2 1 -5
v 2 3 -5
v 2 4 -5
v 2 5 -5
v 2 6 -5
v 2 7 -5
v 2 8 -5
v 3 2 -5
v 3 3 -5
v 3 6 -5
v 3 7 -5
v 3 8 -5
v 3 9 -5
v 4 9 -5
v 4 10 -5
v 5 0 -5
v 5 1 -5
v 5 2 -5
v 5 7 -5
v 5 10 -5
v -5 0 5
v -3 0 5
v -1 0 5
v 2 0 5
v 3 0 5
v 4 0 5
v 5 0 5
v -5 0 4
v -4 0 4
v -3 0 4
v -1 0 4
v 2 0 4
v 3 0 4
v 4 0 4
v -3 0 3
v -2 0 3
v 0 0 3
v 1 0 3
v 2 0 3
v 3 0 3
v 4 0 3
v 5 0 3
v 2 0 2
v 3 0 2
v 4 0 2
v 5 0 2
v -3 0 1
v -2 0 1
v -1 0 1
v 0 0 1
v 1 0 1
v 2 0 1
v 3 0 1
v -2 0 -0
v -1 0 -0
v 1 0 -0
v 2 0 -0
v -1 0 -1
v 0 0 -1
v 1 0 -1
v 2 0 -1
v -3 0 -2
v -2 0 -2
v -1 0 -2
v 0 0 -2
v 1 0 -2
v 2 0 -2
v 3 0 -2
v -3 0 -3
v -2 0 -3
v 0 0 -3
v 1 0 -3
v -4 0 -4
v 0 0 -4
v 2 0 -4
v 4 0 -4
v -5 0 -5
v 0 0 -5
v 2 0 -5
v 5 0 -5
v -5 10 5
v 5 10 5
v -2 10 4
v 0 10 4
v -3 10 3
v -2 10 3
v 0 10 3
v 2 10 3
v -4 10 2
v -3 10 2
v 2 10 2
v 3 10 2
v 2 10 1
v 3 10 1
v -4 10 -0
v -3 10 -0
v 1 10 -0
v 2 10 -0
v -3 10 -1
v -2 10 -1
v -1 10 -1
v 1 10 -1
v -2 10 -2
v -1 10 -2
v 0 10 -2
v 2 10 -2
v -1 10 -3
v 0 10 -3
v 2 10 -3
v 3 10 -3
v -2 10 -4
v -1 10 -4
v 3 10 -4
v 4 10 -4
v -5 10 -5
v -2 10 -5
v 4 10 -5
v 5 10 -5

# faces
f 4/1/1 2/1/1 1/1/1
f 5/2/1 3/2/1 2/2/1
f 5/1/1 2/1/1 4/1/1
f 6/2/1 3/2/1 5/2/1
f 7/3/1 5/3/1 4/3/1
f 7/3/1 6/3/1 5/3/1
f 8/3/1 6/3/1 7/3/1
f 9/4/1 8/4/1 7/4/1
f 9/3/1 6/3/1 8/3/1
f 10/3/1 6/3/1 9/3/1
f 11/3/1 6/3/1 10/3/1
f 12/3/1 6/3/1 11/3/1
f 13/3/1 11/3/1 10/3/1
f 14/4/1 12/4/1 11/4/1
f 14/3/1 11/3/1 13/3/1
f 15/3/1 6/3/1 12/3/1
f 15/4/1 12/4/1 14/4/1
f 16/3/1 6/3/1 15/3/1
f 17/3/1 6/3/1 16/3/1
f 18/3/1 6/3/1 17/3/1
f 19/3/1 17/3/1 16/3/1
f 19/4/1 18/4/1 17/4/1
f 20/4/1 18/4/1 19/4/1
f 21/4/1 10/4/1 9/4/1
f 21/3/1 13/3/1 10/3/1
f 22/3/1 13/3/1 21/3/1
f 23/4/1 14/4/1 13/4/1
f 23/3/1 20/3/1 19/3/1
f 23/4/1 15/4/1 14/4/1
f 23/4/1 16/4/1 15/4/1
f 23/3/1 19/3/1 16/3/1
f 24/3/1 20/3/1 23/3/1
f 25/4/1 22/4/1 21/4/1
f 25/4/1 21/4/1 9/4/1
f 26/3/1 13/3/1 22/3/1
f 26/4/1 22/4/1 25/4/1
f 27/4/1 24/4/1 23/4/1
f 27/3/1 13/3/1 26/3/1
f 27/4/1 23/4/1 13/4/1
f 28/4/1 24/4/1 27/4/1
f 29/4/1 9/4/1 7/4/1
f 29/4/1 25/4/1 9/4/1
f 30/3/1 28/3/1 27/3/1
f 30/4/1 25/4/1 29/4/1
f 30/3/1 26/3/1 25/3/1
f 30/3/1 27/3/1 26/3/1
f 31/4/1 24/4/1 28/4/1
f 31/3/1 28/3/1 30/3/1
f 32/4/1 24/4/1 31/4/1
f 33/4/1 24/4/1 32/4/1
f 34/3/1 20/3/1 24/3/1
f 34/4/1 24/4/1 33/4/1
f 35/4/1 29/4/1 7/4/1
f 36/3/1 30/3/1 29/3/1
f 36/4/1 29/4/1 35/4/1
f 36/3/1 31/3/1 30/3/1
f 36/3/1 32/3/1 31/3/1
f 37/4/1 33/4/1 32/4/1
f 37/3/1 32/3/1 36/3/1
f 38/3/1 34/3/1 33/3/1
f 38/4/1 33/4/1 37/4/1
f 39/3/1 36/3/1 35/3/1
f 39/3/1 37/3/1 36/3/1
f 39/3/1 38/3/1 37/3/1
f 40/3/1 20/3/1 34/3/1
f 40/3/1 38/3/1 39/3/1
f 40/3/1 34/3/1 38/3/1
f 41/2/2 42/2/2 45/2/2
f 42/1/2 43/1/2 46/1/2
f 45/2/2 42/2/2 46/2/2
f 43/2/2 44/2/2 47/2/2
f 46/1/2 43/1/2 47/1/2
f 47/2/2 44/2/2 48/2/2
f 45/3/2 46/3/2 49/3/2
f 46/3/2 47/3/2 49/3/2
f 47/3/2 48/3/2 49/3/2
f 49/3/2 48/3/2 50/3/2
f 45/3/2 49/3/2 51/3/2
f 49/4/2 50/4/2 52/4/2
f 51/3/2 49/3/2 52/3/2
f 45/3/2 51/3/2 53/3/2
f 53/3/2 51/3/2 54/3/2
f 54/3/2 51/3/2 55/3/2
f 55/3/2 51/3/2 56/3/2
f 51/4/2 52/4/2 57/4/2
f 56/3/2 51/3/2 57/3/2
f 52/4/2 50/4/2 58/4/2
f 57/4/2 52/4/2 58/4/2
f 53/4/2 54/4/2 59/4/2
f 54/3/2 55/3/2 60/3/2
f 59/4/2 54/4/2 60/4/2
f 55/4/2 56/4/2 61/4/2
f 60/3/2 55/3/2 61/3/2
f 56/3/2 57/3/2 62/3/2
f 61/4/2 56/4/2 62/4/2
f 57/3/2 58/3/2 62/3/2
f 62/3/2 58/3/2 63/3/2
f 58/4/2 50/4/2 64/4/2
f 63/3/2 58/3/2 64/3/2
f 64/4/2 50/4/2 65/4/2
f 60/4/2 61/4/2 66/4/2
f 59/3/2 60/3/2 66/3/2
f 62/4/2 63/4/2 66/4/2
f 61/4/2 62/4/2 66/4/2
f 66/4/2 63/4/2 67/4/2
f 67/4/2 63/4/2 68/4/2
f 68/4/2 63/4/2 69/4/2
f 69/4/2 63/4/2 70/4/2
f 64/3/2 65/3/2 71/3/2
f 70/4/2 63/4/2 71/4/2
f 63/3/2 64/3/2 71/3/2
f 66/3/2 67/3/2 72/3/2
f 67/4/2 68/4/2 72/4/2
f 68/3/2 69/3/2 73/3/2
f 72/4/2 68/4/2 73/4/2
f 69/4/2 70/4/2 74/4/2
f 73/3/2 69/3/2 74/3/2
f 70/3/2 71/3/2 75/3/2
f 74/4/2 70/4/2 75/4/2
f 72/3/2 73/3/2 76/3/2
f 66/3/2 72/3/2 76/3/2
f 74/3/2 75/3/2 76/3/2
f 73/3/2 74/3/2 76/3/2
f 59/3/2 66/3/2 76/3/2
f 75/3/2 71/3/2 77/3/2
f 76/3/2 75/3/2 77/3/2
f 71/3/2 65/3/2 77/3/2
f 83/3/3 80/3/3 79/3/3
f 83/4/3 81/4/3 80/4/3
f 84/4/3 81/4/3 83/4/3
f 85/1/3 79/1/3 78/1/3
f 86/3/3 83/3/3 79/3/3
f 86/1/3 79/1/3 85/1/3
f 86/3/3 84/3/3 83/3/3
f 87/4/3 81/4/3 84/4/3
f 88/3/3 82/3/3 81/3/3
f 88/4/3 81/4/3 87/4/3
f 89/3/3 84/3/3 86/3/3
f 89/4/3 87/4/3 84/4/3
f 90/4/3 87/4/3 89/4/3
f 91/4/3 87/4/3 90/4/3
f 92/3/3 88/3/3 87/3/3
f 92/4/3 87/4/3 91/4/3
f 93/2/3 86/2/3 85/2/3
f 94/3/3 89/3/3 86/3/3
f 94/2/3 86/2/3 93/2/3
f 94/3/3 90/3/3 89/3/3
f 95/4/3 91/4/3 90/4/3
f 95/3/3 90/3/3 94/3/3
f 96/3/3 92/3/3 91/3/3
f 96/4/3 91/4/3 95/4/3
f 97/3/3 95/3/3 94/3/3
f 97/3/3 96/3/3 95/3/3
f 98/3/3 88/3/3 92/3/3
f 98/3/3 96/3/3 97/3/3
f 98/3/3 92/3/3 96/3/3
f 99/3/3 97/3/3 94/3/3
f 100/4/3 98/4/3 97/4/3
f 100/3/3 97/3/3 99/3/3
f 101/3/3 88/3/3 98/3/3
f 101/4/3 98/4/3 100/4/3
f 102/3/3 82/3/3 88/3/3
f 102/3/3 88/3/3 101/3/3
f 103/1/3 94/1/3 93/1/3
f 104/3/3 99/3/3 94/3/3
f 104/1/3 94/1/3 103/1/3
f 105/3/3 99/3/3 104/3/3
f 106/4/3 101/4/3 100/4/3
f 106/3/3 99/3/3 105/3/3
f 106/4/3 100/4/3 99/4/3
f 106/4/3 102/4/3 101/4/3
f 107/2/3 104/2/3 103/2/3
f 108/3/3 105/3/3 104/3/3
f 108/2/3 104/2/3 107/2/3
f 109/4/3 102/4/3 106/4/3
f 109/4/3 106/4/3 105/4/3
f 110/3/3 82/3/3 102/3/3
f 110/4/3 102/4/3 109/4/3
f 111/1/3 108/1/3 107/1/3
f 112/3/3 105/3/3 108/3/3
f 112/1/3 108/1/3 111/1/3
f 113/4/3 109/4/3 105/4/3
f 113/3/3 105/3/3 112/3/3
f 114/4/3 109/4/3 113/4/3
f 115/4/3 109/4/3 114/4/3
f 116/3/3 110/3/3 109/3/3
f 116/4/3 109/4/3 115/4/3
f 117/2/3 112/2/3 111/2/3
f 118/3/3 113/3/3 112/3/3
f 118/2/3 112/2/3 117/2/3
f 118/3/3 114/3/3 113/3/3
f 119/4/3 115/4/3 114/4/3
f 119/3/3 114/3/3 118/3/3
f 120/3/3 116/3/3 115/3/3
f 120/4/3 115/4/3 119/4/3
f 121/3/3 110/3/3 116/3/3
f 121/3/3 116/3/3 120/3/3
f 121/3/3 82/3/3 110/3/3
f 123/3/4 124/3/4 127/3/4
f 124/4/4 125/4/4 128/4/4
f 127/3/4 124/3/4 128/3/4
f 125/3/4 126/3/4 129/3/4
f 128/4/4 125/4/4 129/4/4
f 129/3/4 126/3/4 130/3/4
f 130/3/4 126/3/4 131/3/4
f 131/3/4 126/3/4 132/3/4
f 127/4/4 128/4/4 133/4/4
f 123/3/4 127/3/4 133/3/4
f 128/4/4 129/4/4 133/4/4
f 129/4/4 130/4/4 133/4/4
f 133/4/4 130/4/4 134/4/4
f 134/4/4 130/4/4 135/4/4
f 130/3/4 131/3/4 136/3/4
f 135/4/4 130/4/4 136/4/4
f 136/3/4 131/3/4 137/3/4
f 131/4/4 132/4/4 138/4/4
f 137/3/4 131/3/4 138/3/4
f 132/3/4 126/3/4 139/3/4
f 138/4/4 132/4/4 139/4/4
f 139/3/4 126/3/4 140/3/4
f 134/4/4 135/4/4 141/4/4
f 133/3/4 134/3/4 141/3/4
f 136/3/4 137/3/4 142/3/4
f 141/4/4 135/4/4 142/4/4
f 135/3/4 136/3/4 142/3/4
f 122/2/4 123/2/4 143/2/4
f 133/3/4 141/3/4 144/3/4
f 143/2/4 123/2/4 144/2/4
f 123/3/4 133/3/4 144/3/4
f 141/3/4 142/3/4 144/3/4
f 142/3/4 137/3/4 145/3/4
f 144/3/4 142/3/4 145/3/4
f 137/4/4 138/4/4 146/4/4
f 145/3/4 137/3/4 146/3/4
f 138/4/4 139/4/4 146/4/4
f 139/4/4 140/4/4 146/4/4
f 144/3/4 145/3/4 147/3/4
f 147/3/4 145/3/4 148/3/4
f 145/4/4 146/4/4 149/4/4
f 148/3/4 145/3/4 149/3/4
f 146/4/4 140/4/4 150/4/4
f 149/4/4 146/4/4 150/4/4
f 143/1/4 144/1/4 151/1/4
f 144/3/4 147/3/4 152/3/4
f 151/1/4 144/1/4 152/1/4
f 152/3/4 147/3/4 153/3/4
f 147/4/4 148/4/4 154/4/4
f 153/3/4 147/3/4 154/3/4
f 148/3/4 149/3/4 155/3/4
f 154/4/4 148/4/4 155/4/4
f 149/3/4 150/3/4 155/3/4
f 155/3/4 150/3/4 156/3/4
f 150/4/4 140/4/4 157/4/4
f 156/3/4 150/3/4 157/3/4
f 157/4/4 140/4/4 158/4/4
f 152/3/4 153/3/4 159/3/4
f 155/4/4 156/4/4 160/4/4
f 159/3/4 153/3/4 160/3/4
f 153/4/4 154/4/4 160/4/4
f 154/4/4 155/4/4 160/4/4
f 157/3/4 158/3/4 161/3/4
f 160/4/4 156/4/4 161/4/4
f 156/3/4 157/3/4 161/3/4
f 161/3/4 158/3/4 162/3/4
f 158/4/4 140/4/4 163/4/4
f 162/3/4 158/3/4 163/3/4
f 163/4/4 140/4/4 164/4/4
f 162/3/4 163/3/4 165/3/4
f 164/4/4 140/4/4 165/4/4
f 163/3/4 164/3/4 165/3/4
f 165/4/4 140/4/4 166/4/4
f 151/2/4 152/2/4 167/2/4
f 152/3/4 159/3/4 168/3/4
f 167/2/4 152/2/4 168/2/4
f 159/4/4 160/4/4 169/4/4
f 168/3/4 159/3/4 169/3/4
f 161/4/4 162/4/4 169/4/4
f 160/4/4 161/4/4 169/4/4
f 165/3/4 166/3/4 170/3/4
f 169/4/4 162/4/4 170/4/4
f 162/3/4 165/3/4 170/3/4
f 170/3/4 166/3/4 171/3/4
f 179/1/5 173/1/5 172/1/5
f 180/1/5 173/1/5 179/1/5
f 181/2/5 174/2/5 173/2/5
f 181/1/5 173/1/5 180/1/5
f 182/1/5 175/1/5 174/1/5
f 182/2/5 174/2/5 181/2/5
f 183/2/5 176/2/5 175/2/5
f 183/1/5 175/1/5 182/1/5
f 184/1/5 177/1/5 176/1/5
f 184/2/5 176/2/5 183/2/5
f 185/2/5 178/2/5 177/2/5
f 185/1/5 177/1/5 184/1/5
f 186/6/5 184/6/5 183/6/5
f 186/6/5 181/6/5 180/6/5
f 186/6/5 185/6/5 184/6/5
f 186/6/5 182/6/5 181/6/5
f 186/6/5 183/6/5 182/6/5
f 187/6/5 185/6/5 186/6/5
f 188/6/5 185/6/5 187/6/5
f 189/6/5 185/6/5 188/6/5
f 190/6/5 185/6/5 189/6/5
f 191/6/5 185/6/5 190/6/5
f 192/2/5 178/2/5 185/2/5
f 192/6/5 185/6/5 191/6/5
f 193/2/5 178/2/5 192/2/5
f 194/5/5 191/5/5 190/5/5
f 194/6/5 190/6/5 189/6/5
f 195/6/5 192/6/5 191/6/5
f 195/5/5 191/5/5 194/5/5
f 196/1/5 193/1/5 192/1/5
f 196/6/5 192/6/5 195/6/5
f 197/1/5 193/1/5 196/1/5
f 198/6/5 186/6/5 180/6/5
f 198/5/5 187/5/5 186/5/5
f 199/6/5 188/6/5 187/6/5
f 199/5/5 187/5/5 198/5/5
f 200/6/5 188/6/5 199/6/5
f 201/5/5 189/5/5 188/5/5
f 201/6/5 188/6/5 200/6/5
f 202/6/5 195/6/5 194/6/5
f 202/5/5 189/5/5 201/5/5
f 202/6/5 194/6/5 189/6/5
f 202/6/5 196/6/5 195/6/5
f 203/6/5 196/6/5 202/6/5
f 204/6/5 196/6/5 203/6/5
f 205/6/5 200/6/5 199/6/5
f 205/6/5 199/6/5 198/6/5
f 206/5/5 201/5/5 200/5/5
f 206/6/5 200/6/5 205/6/5
f 207/6/5 202/6/5 201/6/5
f 207/6/5 203/6/5 202/6/5
f 208/5/5 204/5/5 203/5/5
f 208/6/5 203/6/5 207/6/5
f 209/5/5 201/5/5 206/5/5
f 209/5/5 206/5/5 205/5/5
f 210/6/5 207/6/5 201/6/5
f 210/5/5 201/5/5 209/5/5
f 211/5/5 208/5/5 207/5/5
f 211/6/5 207/6/5 210/6/5
f 212/5/5 204/5/5 208/5/5
f 212/5/5 208/5/5 211/5/5
f 213/6/5 198/6/5 180/6/5
f 213/6/5 205/6/5 198/6/5
f 214/5/5 209/5/5 205/5/5
f 214/6/5 205/6/5 213/6/5
f 215/6/5 212/6/5 211/6/5
f 215/5/5 209/5/5 214/5/5
f 215/6/5 211/6/5 210/6/5
f 215/6/5 210/6/5 209/6/5
f 216/6/5 212/6/5 215/6/5
f 217/6/5 212/6/5 216/6/5
f 218/5/5 204/5/5 212/5/5
f 218/6/5 212/6/5 217/6/5
f 219/6/5 196/6/5 204/6/5
f 219/5/5 204/5/5 218/5/5
f 220/5/5 214/5/5 213/5/5
f 220/6/5 213/6/5 180/6/5
f 221/6/5 215/6/5 214/6/5
f 221/5/5 214/5/5 220/5/5
f 221/6/5 216/6/5 215/6/5
f 222/5/5 217/5/5 216/5/5
f 222/6/5 216/6/5 221/6/5
f 223/6/5 218/6/5 217/6/5
f 223/5/5 217/5/5 222/5/5
f 223/6/5 219/6/5 218/6/5
f 224/2/5 180/2/5 179/2/5
f 224/6/5 221/6/5 220/6/5
f 224/6/5 223/6/5 222/6/5
f 224/6/5 220/6/5 180/6/5
f 224/6/5 222/6/5 221/6/5
f 225/6/5 223/6/5 224/6/5
f 226/6/5 219/6/5 223/6/5
f 226/6/5 223/6/5 225/6/5
f 227/2/5 197/2/5 196/2/5
f 227/6/5 219/6/5 226/6/5
f 227/6/5 196/6/5 219/6/5
f 228/2/5 225/2/5 224/2/5
f 228/2/5 224/2/5 179/2/5
f 229/1/5 226/1/5 225/1/5
f 229/2/5 225/2/5 228/2/5
f 230/2/5 227/2/5 226/2/5
f 230/1/5 226/1/5 229/1/5
f 231/2/5 197/2/5 227/2/5
f 231/2/5 227/2/5 230/2/5
f 232/3/6 233/3/6 234/3/6
f 234/3/6 233/3/6 235/3/6
f 232/3/6 234/3/6 236/3/6
f 234/4/6 235/4/6 237/4/6
f 236/3/6 234/3/6 237/3/6
f 235/3/6 233/3/6 238/3/6
f 237/4/6 235/4/6 238/4/6
f 238/3/6 233/3/6 239/3/6
f 232/3/6 236/3/6 240/3/6
f 236/4/6 237/4/6 241/4/6
f 240/3/6 236/3/6 241/3/6
f 237/4/6 238/4/6 241/4/6
f 238/4/6 239/4/6 241/4/6
f 239/3/6 233/3/6 242/3/6
f 241/4/6 239/4/6 242/4/6
f 242/3/6 233/3/6 243/3/6
f 240/4/6 241/4/6 244/4/6
f 241/4/6 242/4/6 244/4/6
f 242/4/6 243/4/6 244/4/6
f 243/3/6 233/3/6 245/3/6
f 244/4/6 243/4/6 245/4/6
f 232/3/6 240/3/6 246/3/6
f 240/4/6 244/4/6 246/4/6
f 246/4/6 244/4/6 247/4/6
f 247/4/6 244/4/6 248/4/6
f 244/3/6 245/3/6 249/3/6
f 248/4/6 244/4/6 249/4/6
f 247/4/6 248/4/6 250/4/6
f 246/3/6 247/3/6 250/3/6
f 250/4/6 248/4/6 251/4/6
f 251/4/6 248/4/6 252/4/6
f 248/3/6 249/3/6 253/3/6
f 252/4/6 248/4/6 253/4/6
f 251/4/6 252/4/6 254/4/6
f 250/3/6 251/3/6 254/3/6
f 252/3/6 253/3/6 255/3/6
f 254/4/6 252/4/6 255/4/6
f 255/3/6 253/3/6 256/3/6
f 249/3/6 245/3/6 257/3/6
f 256/3/6 253/3/6 257/3/6
f 253/3/6 249/3/6 257/3/6
f 255/3/6 256/3/6 258/3/6
f 254/3/6 255/3/6 258/3/6
f 256/4/6 257/4/6 259/4/6
f 258/3/6 256/3/6 259/3/6
f 257/3/6 245/3/6 260/3/6
f 259/4/6 257/4/6 260/4/6
f 245/3/6 233/3/6 261/3/6
f 260/3/6 245/3/6 261/3/6
f 254/3/6 258/3/6 262/3/6
f 250/3/6 254/3/6 262/3/6
f 259/4/6 260/4/6 263/4/6
f 262/3/6 258/3/6 263/3/6
f 258/4/6 259/4/6 263/4/6
f 260/4/6 261/4/6 263/4/6
f 261/3/6 233/3/6 264/3/6
f 263/4/6 261/4/6 264/4/6
f 264/3/6 233/3/6 265/3/6
f 250/3/6 262/3/6 266/3/6
f 246/3/6 250/3/6 266/3/6
f 232/3/6 246/3/6 266/3/6
f 264/4/6 265/4/6 267/4/6
f 266/3/6 262/3/6 267/3/6
f 263/4/6 264/4/6 267/4/6
f 262/4/6 263/4/6 267/4/6
f 265/3/6 233/3/6 268/3/6
f 267/4/6 265/4/6 268/4/6
f 268/3/6 233/3/6 269/3/6
